# xmcd
#
# Track frame offsets: 
#        150
#        10825
#        27935
#        41447
#        59477
#        77227
#        97900
#        113875
#        132880
#        155872
#        177555
#
# Disc length: 2634 seconds
#
# Revision: 2
# Processed by: cddbd v1.5.2PL0 Copyright (c) Steve Scherf et al.
# Submitted via: ExactAudioCopy v0.99pb4
#
DISCID=8d0a480b
DTITLE=Sonny Terry and Brownie McGhee - At Sugar Hill
DYEAR=1961
DGENRE=Blues
TTITLE0=Hooray, Hooray, This Woman Is Killing Me
TTITLE1=Born To Live The Blues
TTITLE2=Just About Crazy
TTITLE3=Up, Sometimes Down
TTITLE4=Baby, I Knocked on Your Door
TTITLE5=Keep On Walking
TTITLE6=Baby, I Got My Eye On You
TTITLE7=I Got A Little Girl
TTITLE8=I Feel Alright Now
TTITLE9=Worry, Worry, Worry
TTITLE10=Sweet Woman Blues
EXTD=Recorded in San Francisco, December 1961 at Sugar Hill.\n
EXTT0=
EXTT1=
EXTT2=
EXTT3=
EXTT4=
EXTT5=
EXTT6=
EXTT7=
EXTT8=
EXTT9=
EXTT10=
PLAYORDER=
